<svg width="60" height="60" viewBox="0 0 36 36" fill="none" xmlns="http://www.w3.org/2000/svg">
<circle cx="18" cy="18" r="18" fill="url(#paint0_linear)"/>
<path d="M27.3749 14.625H22.464L17.948 4.92504C17.8878 4.7959 17.8008 4.68857 17.6959 4.61393C17.591 4.5393 17.472 4.49999 17.3507 4.5H14.5363C14.0795 4.5 13.7499 5.03631 13.8754 5.57525L15.9822 14.625H11.5624L9.70614 11.5875C9.57637 11.375 9.37227 11.25 9.15614 11.25H7.43782C6.99051 11.25 6.66223 11.7657 6.77094 12.2984L8.12489 18L6.77094 23.7016C6.66223 24.2343 6.99051 24.75 7.43782 24.75H9.15614C9.3727 24.75 9.57637 24.625 9.70614 24.4125L11.5624 21.375H15.9822L13.8754 30.4242C13.7499 30.9632 14.0795 31.5 14.5363 31.5H17.3507C17.5974 31.5 17.8251 31.3376 17.9476 31.075L22.464 21.375H27.3749C28.8939 21.375 31.4999 19.8642 31.4999 18C31.4999 16.1358 28.8939 14.625 27.3749 14.625Z" fill="white"/>
<defs>
<linearGradient id="paint0_linear" x1="6.75" y1="3.375" x2="30.375" y2="32.625" gradientUnits="userSpaceOnUse">
<stop stop-color="#00C614"/>
<stop offset="0.809916" stop-color="#7FFC8B" stop-opacity="0.78"/>
<stop offset="1" stop-color="#00C614" stop-opacity="0"/>
</linearGradient>
</defs>
</svg>
